<?xml version="1.0" encoding="UTF-8" standalone="no"?>
<!DOCTYPE svg PUBLIC "-//W3C//DTD SVG 1.1//EN"
 "http://www.w3.org/Graphics/SVG/1.1/DTD/svg11.dtd">
<!-- Generated by graphviz version 2.38.0 (20140413.2041)
 -->
<!-- Title: snakemake_dag Pages: 1 -->
<svg width="665pt" height="908pt"
 viewBox="0.00 0.00 665.00 908.00" xmlns="http://www.w3.org/2000/svg" xmlns:xlink="http://www.w3.org/1999/xlink">
<g id="graph0" class="graph" transform="scale(1 1) rotate(0) translate(4 904)">
<title>snakemake_dag</title>
<polygon fill="white" stroke="none" points="-4,4 -4,-904 661,-904 661,4 -4,4"/>
<!-- 0 -->
<g id="node1" class="node"><title>0</title>
<path fill="none" stroke="#d8cb56" stroke-width="2" d="M250,-612C250,-612 151,-612 151,-612 145,-612 139,-606 139,-600 139,-600 139,-588 139,-588 139,-582 145,-576 151,-576 151,-576 250,-576 250,-576 256,-576 262,-582 262,-588 262,-588 262,-600 262,-600 262,-606 256,-612 250,-612"/>
<text text-anchor="middle" x="200.5" y="-597" font-family="sans" font-size="10.00">intersectTFBSAndBAM</text>
<text text-anchor="middle" x="200.5" y="-586" font-family="sans" font-size="10.00">TF: CTCF</text>
</g>
<!-- 15 -->
<g id="node16" class="node"><title>15</title>
<path fill="none" stroke="#afd856" stroke-width="2" d="M266.5,-540C266.5,-540 226.5,-540 226.5,-540 220.5,-540 214.5,-534 214.5,-528 214.5,-528 214.5,-516 214.5,-516 214.5,-510 220.5,-504 226.5,-504 226.5,-504 266.5,-504 266.5,-504 272.5,-504 278.5,-510 278.5,-516 278.5,-516 278.5,-528 278.5,-528 278.5,-534 272.5,-540 266.5,-540"/>
<text text-anchor="middle" x="246.5" y="-519.5" font-family="sans" font-size="10.00">analyzeTF</text>
</g>
<!-- 0&#45;&gt;15 -->
<g id="edge30" class="edge"><title>0&#45;&gt;15</title>
<path fill="none" stroke="grey" stroke-width="2" d="M211.871,-575.697C217.218,-567.559 223.704,-557.689 229.611,-548.701"/>
<polygon fill="grey" stroke="grey" stroke-width="2" points="232.693,-550.384 235.26,-540.104 226.843,-546.539 232.693,-550.384"/>
</g>
<!-- 1 -->
<g id="node2" class="node"><title>1</title>
<path fill="none" stroke="#70d856" stroke-width="2" d="M484,-756C484,-756 397,-756 397,-756 391,-756 385,-750 385,-744 385,-744 385,-732 385,-732 385,-726 391,-720 397,-720 397,-720 484,-720 484,-720 490,-720 496,-726 496,-732 496,-732 496,-744 496,-744 496,-750 490,-756 484,-756"/>
<text text-anchor="middle" x="440.5" y="-741" font-family="sans" font-size="10.00">resortBAM</text>
<text text-anchor="middle" x="440.5" y="-730" font-family="sans" font-size="10.00">BAM: MPP.WT.1.chr1</text>
</g>
<!-- 1&#45;&gt;0 -->
<g id="edge3" class="edge"><title>1&#45;&gt;0</title>
<path fill="none" stroke="grey" stroke-width="2" d="M433.985,-719.936C425.427,-699.789 408.491,-666.667 383.5,-648 374.13,-641.001 319.252,-625.557 272.013,-613.137"/>
<polygon fill="grey" stroke="grey" stroke-width="2" points="272.628,-609.68 262.068,-610.537 270.857,-616.452 272.628,-609.68"/>
</g>
<!-- 4 -->
<g id="node5" class="node"><title>4</title>
<path fill="none" stroke="#8fd856" stroke-width="2" d="M362.5,-684C362.5,-684 258.5,-684 258.5,-684 252.5,-684 246.5,-678 246.5,-672 246.5,-672 246.5,-660 246.5,-660 246.5,-654 252.5,-648 258.5,-648 258.5,-648 362.5,-648 362.5,-648 368.5,-648 374.5,-654 374.5,-660 374.5,-660 374.5,-672 374.5,-672 374.5,-678 368.5,-684 362.5,-684"/>
<text text-anchor="middle" x="310.5" y="-663.5" font-family="sans" font-size="10.00">intersectPeaksAndBAM</text>
</g>
<!-- 1&#45;&gt;4 -->
<g id="edge9" class="edge"><title>1&#45;&gt;4</title>
<path fill="none" stroke="grey" stroke-width="2" d="M408.698,-719.876C391.386,-710.554 369.779,-698.919 351.244,-688.939"/>
<polygon fill="grey" stroke="grey" stroke-width="2" points="352.888,-685.849 342.424,-684.19 349.569,-692.012 352.888,-685.849"/>
</g>
<!-- 5 -->
<g id="node6" class="node"><title>5</title>
<path fill="none" stroke="#d8cb56" stroke-width="2" d="M470,-612C470,-612 371,-612 371,-612 365,-612 359,-606 359,-600 359,-600 359,-588 359,-588 359,-582 365,-576 371,-576 371,-576 470,-576 470,-576 476,-576 482,-582 482,-588 482,-588 482,-600 482,-600 482,-606 476,-612 470,-612"/>
<text text-anchor="middle" x="420.5" y="-597" font-family="sans" font-size="10.00">intersectTFBSAndBAM</text>
<text text-anchor="middle" x="420.5" y="-586" font-family="sans" font-size="10.00">TF: CEBPB</text>
</g>
<!-- 1&#45;&gt;5 -->
<g id="edge12" class="edge"><title>1&#45;&gt;5</title>
<path fill="none" stroke="grey" stroke-width="2" d="M447.54,-719.983C454.036,-701.857 461.673,-672.466 454.5,-648 451.699,-638.447 446.589,-628.984 441.167,-620.756"/>
<polygon fill="grey" stroke="grey" stroke-width="2" points="443.876,-618.525 435.255,-612.366 438.154,-622.557 443.876,-618.525"/>
</g>
<!-- 2 -->
<g id="node3" class="node"><title>2</title>
<path fill="none" stroke="#d8ac56" stroke-width="2" d="M253,-828C253,-828 140,-828 140,-828 134,-828 128,-822 128,-816 128,-816 128,-804 128,-804 128,-798 134,-792 140,-792 140,-792 253,-792 253,-792 259,-792 265,-798 265,-804 265,-804 265,-816 265,-816 265,-822 259,-828 253,-828"/>
<text text-anchor="middle" x="196.5" y="-807.5" font-family="sans" font-size="10.00">produceConsensusPeaks</text>
</g>
<!-- 3 -->
<g id="node4" class="node"><title>3</title>
<path fill="none" stroke="#56d8c9" stroke-width="2" d="M223.5,-756C223.5,-756 53.5,-756 53.5,-756 47.5,-756 41.5,-750 41.5,-744 41.5,-744 41.5,-732 41.5,-732 41.5,-726 47.5,-720 53.5,-720 53.5,-720 223.5,-720 223.5,-720 229.5,-720 235.5,-726 235.5,-732 235.5,-732 235.5,-744 235.5,-744 235.5,-750 229.5,-756 223.5,-756"/>
<text text-anchor="middle" x="138.5" y="-735.5" font-family="sans" font-size="10.00">filterSexChromosomesAndSortPeaks</text>
</g>
<!-- 2&#45;&gt;3 -->
<g id="edge6" class="edge"><title>2&#45;&gt;3</title>
<path fill="none" stroke="grey" stroke-width="2" d="M182.163,-791.697C175.209,-783.305 166.73,-773.07 159.099,-763.861"/>
<polygon fill="grey" stroke="grey" stroke-width="2" points="161.747,-761.571 152.672,-756.104 156.357,-766.038 161.747,-761.571"/>
</g>
<!-- 3&#45;&gt;4 -->
<g id="edge8" class="edge"><title>3&#45;&gt;4</title>
<path fill="none" stroke="grey" stroke-width="2" d="M180.576,-719.876C204.298,-710.222 234.116,-698.087 259.201,-687.878"/>
<polygon fill="grey" stroke="grey" stroke-width="2" points="260.618,-691.08 268.561,-684.068 257.979,-684.596 260.618,-691.08"/>
</g>
<!-- 8 -->
<g id="node9" class="node"><title>8</title>
<path fill="none" stroke="#c6d856" stroke-width="2" d="M178.5,-684C178.5,-684 72.5,-684 72.5,-684 66.5,-684 60.5,-678 60.5,-672 60.5,-672 60.5,-660 60.5,-660 60.5,-654 66.5,-648 72.5,-648 72.5,-648 178.5,-648 178.5,-648 184.5,-648 190.5,-654 190.5,-660 190.5,-660 190.5,-672 190.5,-672 190.5,-678 184.5,-684 178.5,-684"/>
<text text-anchor="middle" x="125.5" y="-663.5" font-family="sans" font-size="10.00">intersectPeaksAndTFBS</text>
</g>
<!-- 3&#45;&gt;8 -->
<g id="edge18" class="edge"><title>3&#45;&gt;8</title>
<path fill="none" stroke="grey" stroke-width="2" d="M135.287,-719.697C133.854,-711.983 132.132,-702.712 130.535,-694.112"/>
<polygon fill="grey" stroke="grey" stroke-width="2" points="133.944,-693.297 128.677,-684.104 127.061,-694.575 133.944,-693.297"/>
</g>
<!-- 22 -->
<g id="node23" class="node"><title>22</title>
<path fill="none" stroke="#56a9d8" stroke-width="2" d="M329,-612C329,-612 292,-612 292,-612 286,-612 280,-606 280,-600 280,-600 280,-588 280,-588 280,-582 286,-576 292,-576 292,-576 329,-576 329,-576 335,-576 341,-582 341,-588 341,-588 341,-600 341,-600 341,-606 335,-612 329,-612"/>
<text text-anchor="middle" x="310.5" y="-591.5" font-family="sans" font-size="10.00">DiffPeaks</text>
</g>
<!-- 4&#45;&gt;22 -->
<g id="edge51" class="edge"><title>4&#45;&gt;22</title>
<path fill="none" stroke="grey" stroke-width="2" d="M310.5,-647.697C310.5,-639.983 310.5,-630.712 310.5,-622.112"/>
<polygon fill="grey" stroke="grey" stroke-width="2" points="314,-622.104 310.5,-612.104 307,-622.104 314,-622.104"/>
</g>
<!-- 13 -->
<g id="node14" class="node"><title>13</title>
<path fill="none" stroke="#afd856" stroke-width="2" d="M428.5,-540C428.5,-540 388.5,-540 388.5,-540 382.5,-540 376.5,-534 376.5,-528 376.5,-528 376.5,-516 376.5,-516 376.5,-510 382.5,-504 388.5,-504 388.5,-504 428.5,-504 428.5,-504 434.5,-504 440.5,-510 440.5,-516 440.5,-516 440.5,-528 440.5,-528 440.5,-534 434.5,-540 428.5,-540"/>
<text text-anchor="middle" x="408.5" y="-519.5" font-family="sans" font-size="10.00">analyzeTF</text>
</g>
<!-- 5&#45;&gt;13 -->
<g id="edge24" class="edge"><title>5&#45;&gt;13</title>
<path fill="none" stroke="grey" stroke-width="2" d="M417.534,-575.697C416.211,-567.983 414.622,-558.712 413.148,-550.112"/>
<polygon fill="grey" stroke="grey" stroke-width="2" points="416.572,-549.369 411.432,-540.104 409.672,-550.552 416.572,-549.369"/>
</g>
<!-- 6 -->
<g id="node7" class="node"><title>6</title>
<path fill="none" stroke="#56d873" stroke-width="2" d="M251,-108C251,-108 182,-108 182,-108 176,-108 170,-102 170,-96 170,-96 170,-84 170,-84 170,-78 176,-72 182,-72 182,-72 251,-72 251,-72 257,-72 263,-78 263,-84 263,-84 263,-96 263,-96 263,-102 257,-108 251,-108"/>
<text text-anchor="middle" x="216.5" y="-87.5" font-family="sans" font-size="10.00">cleanUpLogFiles</text>
</g>
<!-- 12 -->
<g id="node13" class="node"><title>12</title>
<path fill="none" stroke="#d87556" stroke-width="2" d="M268.5,-36C268.5,-36 238.5,-36 238.5,-36 232.5,-36 226.5,-30 226.5,-24 226.5,-24 226.5,-12 226.5,-12 226.5,-6 232.5,-0 238.5,-0 238.5,-0 268.5,-0 268.5,-0 274.5,-0 280.5,-6 280.5,-12 280.5,-12 280.5,-24 280.5,-24 280.5,-30 274.5,-36 268.5,-36"/>
<text text-anchor="middle" x="253.5" y="-15.5" font-family="sans" font-size="10.00">all</text>
</g>
<!-- 6&#45;&gt;12 -->
<g id="edge22" class="edge"><title>6&#45;&gt;12</title>
<path fill="none" stroke="grey" stroke-width="2" d="M225.646,-71.6966C229.903,-63.6436 235.056,-53.8945 239.766,-44.9824"/>
<polygon fill="grey" stroke="grey" stroke-width="2" points="242.88,-46.5809 244.459,-36.1043 236.692,-43.3097 242.88,-46.5809"/>
</g>
<!-- 7 -->
<g id="node8" class="node"><title>7</title>
<path fill="none" stroke="#d88d56" stroke-width="2" d="M645,-396C645,-396 538,-396 538,-396 532,-396 526,-390 526,-384 526,-384 526,-372 526,-372 526,-366 532,-360 538,-360 538,-360 645,-360 645,-360 651,-360 657,-366 657,-372 657,-372 657,-384 657,-384 657,-390 651,-396 645,-396"/>
<text text-anchor="middle" x="591.5" y="-381" font-family="sans" font-size="10.00">concatenateMotifsPerm</text>
<text text-anchor="middle" x="591.5" y="-370" font-family="sans" font-size="10.00">perm: 1</text>
</g>
<!-- 14 -->
<g id="node15" class="node"><title>14</title>
<path fill="none" stroke="#56d8a9" stroke-width="2" d="M384,-252C384,-252 343,-252 343,-252 337,-252 331,-246 331,-240 331,-240 331,-228 331,-228 331,-222 337,-216 343,-216 343,-216 384,-216 384,-216 390,-216 396,-222 396,-228 396,-228 396,-240 396,-240 396,-246 390,-252 384,-252"/>
<text text-anchor="middle" x="363.5" y="-237" font-family="sans" font-size="10.00">binningTF</text>
<text text-anchor="middle" x="363.5" y="-226" font-family="sans" font-size="10.00">TF: CEBPB</text>
</g>
<!-- 7&#45;&gt;14 -->
<g id="edge28" class="edge"><title>7&#45;&gt;14</title>
<path fill="none" stroke="grey" stroke-width="2" d="M565.983,-359.892C538.647,-341.689 493.871,-312.234 454.5,-288 437.553,-277.569 418.567,-266.427 402.339,-257.064"/>
<polygon fill="grey" stroke="grey" stroke-width="2" points="404.051,-254.012 393.638,-252.062 400.562,-260.08 404.051,-254.012"/>
</g>
<!-- 21 -->
<g id="node22" class="node"><title>21</title>
<path fill="none" stroke="#56d8a9" stroke-width="2" d="M272.5,-252C272.5,-252 234.5,-252 234.5,-252 228.5,-252 222.5,-246 222.5,-240 222.5,-240 222.5,-228 222.5,-228 222.5,-222 228.5,-216 234.5,-216 234.5,-216 272.5,-216 272.5,-216 278.5,-216 284.5,-222 284.5,-228 284.5,-228 284.5,-240 284.5,-240 284.5,-246 278.5,-252 272.5,-252"/>
<text text-anchor="middle" x="253.5" y="-237" font-family="sans" font-size="10.00">binningTF</text>
<text text-anchor="middle" x="253.5" y="-226" font-family="sans" font-size="10.00">TF: CTCF</text>
</g>
<!-- 7&#45;&gt;21 -->
<g id="edge49" class="edge"><title>7&#45;&gt;21</title>
<path fill="none" stroke="grey" stroke-width="2" d="M525.7,-361.834C522.594,-361.197 519.515,-360.582 516.5,-360 417.065,-340.797 371.32,-386.328 291.5,-324 272.217,-308.943 262.576,-282.219 257.847,-261.973"/>
<polygon fill="grey" stroke="grey" stroke-width="2" points="261.252,-261.154 255.797,-252.072 254.397,-262.574 261.252,-261.154"/>
</g>
<!-- 8&#45;&gt;0 -->
<g id="edge2" class="edge"><title>8&#45;&gt;0</title>
<path fill="none" stroke="grey" stroke-width="2" d="M144.039,-647.697C153.303,-639.05 164.662,-628.449 174.757,-619.027"/>
<polygon fill="grey" stroke="grey" stroke-width="2" points="177.251,-621.486 182.174,-612.104 172.475,-616.369 177.251,-621.486"/>
</g>
<!-- 8&#45;&gt;5 -->
<g id="edge11" class="edge"><title>8&#45;&gt;5</title>
<path fill="none" stroke="grey" stroke-width="2" d="M190.693,-649.623C233.034,-639.626 289.692,-626.226 349.001,-612.116"/>
<polygon fill="grey" stroke="grey" stroke-width="2" points="350.011,-615.473 358.929,-609.753 348.39,-608.663 350.011,-615.473"/>
</g>
<!-- 9 -->
<g id="node10" class="node"><title>9</title>
<path fill="none" stroke="#5673d8" stroke-width="2" d="M414,-324C414,-324 313,-324 313,-324 307,-324 301,-318 301,-312 301,-312 301,-300 301,-300 301,-294 307,-288 313,-288 313,-288 414,-288 414,-288 420,-288 426,-294 426,-300 426,-300 426,-312 426,-312 426,-318 420,-324 414,-324"/>
<text text-anchor="middle" x="363.5" y="-303.5" font-family="sans" font-size="10.00">calcNucleotideContent</text>
</g>
<!-- 9&#45;&gt;14 -->
<g id="edge29" class="edge"><title>9&#45;&gt;14</title>
<path fill="none" stroke="grey" stroke-width="2" d="M363.5,-287.697C363.5,-279.983 363.5,-270.712 363.5,-262.112"/>
<polygon fill="grey" stroke="grey" stroke-width="2" points="367,-262.104 363.5,-252.104 360,-262.104 367,-262.104"/>
</g>
<!-- 9&#45;&gt;21 -->
<g id="edge50" class="edge"><title>9&#45;&gt;21</title>
<path fill="none" stroke="grey" stroke-width="2" d="M336.591,-287.876C322.342,-278.808 304.654,-267.552 289.264,-257.759"/>
<polygon fill="grey" stroke="grey" stroke-width="2" points="290.828,-254.606 280.512,-252.19 287.07,-260.511 290.828,-254.606"/>
</g>
<!-- 10 -->
<g id="node11" class="node"><title>10</title>
<path fill="none" stroke="#d85656" stroke-width="2" d="M81,-828C81,-828 12,-828 12,-828 6,-828 7.10543e-15,-822 7.10543e-15,-816 7.10543e-15,-816 7.10543e-15,-804 7.10543e-15,-804 7.10543e-15,-798 6,-792 12,-792 12,-792 81,-792 81,-792 87,-792 93,-798 93,-804 93,-804 93,-816 93,-816 93,-822 87,-828 81,-828"/>
<text text-anchor="middle" x="46.5" y="-807.5" font-family="sans" font-size="10.00">sortTFBSParallel</text>
</g>
<!-- 10&#45;&gt;8 -->
<g id="edge17" class="edge"><title>10&#45;&gt;8</title>
<path fill="none" stroke="grey" stroke-width="2" d="M37.5352,-791.716C29.0973,-772.837 19.5332,-742.314 32.5,-720 40.0863,-706.945 52.2251,-696.838 65.2625,-689.123"/>
<polygon fill="grey" stroke="grey" stroke-width="2" points="67.2767,-692.011 74.3871,-684.157 63.9305,-685.863 67.2767,-692.011"/>
</g>
<!-- 11 -->
<g id="node12" class="node"><title>11</title>
<path fill="none" stroke="#70d856" stroke-width="2" d="M355,-756C355,-756 266,-756 266,-756 260,-756 254,-750 254,-744 254,-744 254,-732 254,-732 254,-726 260,-720 266,-720 266,-720 355,-720 355,-720 361,-720 367,-726 367,-732 367,-732 367,-744 367,-744 367,-750 361,-756 355,-756"/>
<text text-anchor="middle" x="310.5" y="-741" font-family="sans" font-size="10.00">resortBAM</text>
<text text-anchor="middle" x="310.5" y="-730" font-family="sans" font-size="10.00">BAM: GMP.WT.1.chr1</text>
</g>
<!-- 11&#45;&gt;0 -->
<g id="edge1" class="edge"><title>11&#45;&gt;0</title>
<path fill="none" stroke="grey" stroke-width="2" d="M279.35,-719.812C265.08,-710.687 248.856,-698.381 237.5,-684 222.975,-665.606 213.268,-640.698 207.455,-621.91"/>
<polygon fill="grey" stroke="grey" stroke-width="2" points="210.779,-620.804 204.621,-612.183 204.058,-622.762 210.779,-620.804"/>
</g>
<!-- 11&#45;&gt;4 -->
<g id="edge7" class="edge"><title>11&#45;&gt;4</title>
<path fill="none" stroke="grey" stroke-width="2" d="M310.5,-719.697C310.5,-711.983 310.5,-702.712 310.5,-694.112"/>
<polygon fill="grey" stroke="grey" stroke-width="2" points="314,-694.104 310.5,-684.104 307,-694.104 314,-694.104"/>
</g>
<!-- 11&#45;&gt;5 -->
<g id="edge10" class="edge"><title>11&#45;&gt;5</title>
<path fill="none" stroke="grey" stroke-width="2" d="M341.65,-719.812C355.92,-710.687 372.144,-698.381 383.5,-684 398.025,-665.606 407.732,-640.698 413.545,-621.91"/>
<polygon fill="grey" stroke="grey" stroke-width="2" points="416.942,-622.762 416.379,-612.183 410.221,-620.804 416.942,-622.762"/>
</g>
<!-- 13&#45;&gt;7 -->
<g id="edge14" class="edge"><title>13&#45;&gt;7</title>
<path fill="none" stroke="grey" stroke-width="2" d="M440.529,-512.907C467.332,-504.907 505.43,-490.554 532.5,-468 553.063,-450.867 569.197,-424.752 579.358,-405.235"/>
<polygon fill="grey" stroke="grey" stroke-width="2" points="582.509,-406.761 583.86,-396.252 576.251,-403.625 582.509,-406.761"/>
</g>
<!-- 16 -->
<g id="node17" class="node"><title>16</title>
<path fill="none" stroke="#59d856" stroke-width="2" d="M368.5,-468C368.5,-468 324.5,-468 324.5,-468 318.5,-468 312.5,-462 312.5,-456 312.5,-456 312.5,-444 312.5,-444 312.5,-438 318.5,-432 324.5,-432 324.5,-432 368.5,-432 368.5,-432 374.5,-432 380.5,-438 380.5,-444 380.5,-444 380.5,-456 380.5,-456 380.5,-462 374.5,-468 368.5,-468"/>
<text text-anchor="middle" x="346.5" y="-447.5" font-family="sans" font-size="10.00">summary1</text>
</g>
<!-- 13&#45;&gt;16 -->
<g id="edge32" class="edge"><title>13&#45;&gt;16</title>
<path fill="none" stroke="grey" stroke-width="2" d="M393.174,-503.697C385.741,-495.305 376.677,-485.07 368.52,-475.861"/>
<polygon fill="grey" stroke="grey" stroke-width="2" points="370.9,-473.27 361.65,-468.104 365.66,-477.911 370.9,-473.27"/>
</g>
<!-- 17 -->
<g id="node18" class="node"><title>17</title>
<path fill="none" stroke="#56d892" stroke-width="2" d="M347,-396C347,-396 266,-396 266,-396 260,-396 254,-390 254,-384 254,-384 254,-372 254,-372 254,-366 260,-360 266,-360 266,-360 347,-360 347,-360 353,-360 359,-366 359,-372 359,-372 359,-384 359,-384 359,-390 353,-396 347,-396"/>
<text text-anchor="middle" x="306.5" y="-375.5" font-family="sans" font-size="10.00">concatenateMotifs</text>
</g>
<!-- 13&#45;&gt;17 -->
<g id="edge35" class="edge"><title>13&#45;&gt;17</title>
<path fill="none" stroke="grey" stroke-width="2" d="M408.649,-503.725C407.999,-484.575 404.448,-453.551 389.5,-432 380.87,-419.558 368.278,-409.382 355.498,-401.393"/>
<polygon fill="grey" stroke="grey" stroke-width="2" points="357.062,-398.253 346.666,-396.21 353.519,-404.29 357.062,-398.253"/>
</g>
<!-- 19 -->
<g id="node20" class="node"><title>19</title>
<path fill="none" stroke="#d88d56" stroke-width="2" d="M224,-396C224,-396 117,-396 117,-396 111,-396 105,-390 105,-384 105,-384 105,-372 105,-372 105,-366 111,-360 117,-360 117,-360 224,-360 224,-360 230,-360 236,-366 236,-372 236,-372 236,-384 236,-384 236,-390 230,-396 224,-396"/>
<text text-anchor="middle" x="170.5" y="-381" font-family="sans" font-size="10.00">concatenateMotifsPerm</text>
<text text-anchor="middle" x="170.5" y="-370" font-family="sans" font-size="10.00">perm: 0</text>
</g>
<!-- 13&#45;&gt;19 -->
<g id="edge41" class="edge"><title>13&#45;&gt;19</title>
<path fill="none" stroke="grey" stroke-width="2" d="M376.256,-505.989C355.202,-495.881 327.304,-481.902 303.5,-468 268.15,-447.355 229.433,-420.992 202.936,-402.332"/>
<polygon fill="grey" stroke="grey" stroke-width="2" points="204.625,-399.239 194.44,-396.318 200.58,-404.953 204.625,-399.239"/>
</g>
<!-- 20 -->
<g id="node21" class="node"><title>20</title>
<path fill="none" stroke="#d88d56" stroke-width="2" d="M496,-396C496,-396 389,-396 389,-396 383,-396 377,-390 377,-384 377,-384 377,-372 377,-372 377,-366 383,-360 389,-360 389,-360 496,-360 496,-360 502,-360 508,-366 508,-372 508,-372 508,-384 508,-384 508,-390 502,-396 496,-396"/>
<text text-anchor="middle" x="442.5" y="-381" font-family="sans" font-size="10.00">concatenateMotifsPerm</text>
<text text-anchor="middle" x="442.5" y="-370" font-family="sans" font-size="10.00">perm: 2</text>
</g>
<!-- 13&#45;&gt;20 -->
<g id="edge44" class="edge"><title>13&#45;&gt;20</title>
<path fill="none" stroke="grey" stroke-width="2" d="M413.202,-503.855C415.999,-493.498 419.563,-480.019 422.5,-468 427.543,-447.361 432.793,-423.912 436.648,-406.266"/>
<polygon fill="grey" stroke="grey" stroke-width="2" points="440.152,-406.621 438.854,-396.106 433.312,-405.136 440.152,-406.621"/>
</g>
<!-- 18 -->
<g id="node19" class="node"><title>18</title>
<path fill="none" stroke="#56c9d8" stroke-width="2" d="M283,-180C283,-180 224,-180 224,-180 218,-180 212,-174 212,-168 212,-168 212,-156 212,-156 212,-150 218,-144 224,-144 224,-144 283,-144 283,-144 289,-144 295,-150 295,-156 295,-156 295,-168 295,-168 295,-174 289,-180 283,-180"/>
<text text-anchor="middle" x="253.5" y="-159.5" font-family="sans" font-size="10.00">summaryFinal</text>
</g>
<!-- 14&#45;&gt;18 -->
<g id="edge38" class="edge"><title>14&#45;&gt;18</title>
<path fill="none" stroke="grey" stroke-width="2" d="M336.591,-215.876C322.342,-206.808 304.654,-195.552 289.264,-185.759"/>
<polygon fill="grey" stroke="grey" stroke-width="2" points="290.828,-182.606 280.512,-180.19 287.07,-188.511 290.828,-182.606"/>
</g>
<!-- 15&#45;&gt;7 -->
<g id="edge16" class="edge"><title>15&#45;&gt;7</title>
<path fill="none" stroke="grey" stroke-width="2" d="M278.517,-509.756C307.638,-499.381 351.71,-483.312 389.5,-468 443.54,-446.104 504.697,-418.798 545.422,-400.246"/>
<polygon fill="grey" stroke="grey" stroke-width="2" points="546.911,-403.414 554.555,-396.077 544.004,-397.046 546.911,-403.414"/>
</g>
<!-- 15&#45;&gt;16 -->
<g id="edge34" class="edge"><title>15&#45;&gt;16</title>
<path fill="none" stroke="grey" stroke-width="2" d="M270.963,-503.876C283.796,-494.893 299.696,-483.763 313.594,-474.034"/>
<polygon fill="grey" stroke="grey" stroke-width="2" points="315.758,-476.792 321.943,-468.19 311.744,-471.057 315.758,-476.792"/>
</g>
<!-- 15&#45;&gt;17 -->
<g id="edge37" class="edge"><title>15&#45;&gt;17</title>
<path fill="none" stroke="grey" stroke-width="2" d="M237.98,-503.959C229.931,-485.292 220.705,-454.955 232.5,-432 238.773,-419.791 249.308,-409.766 260.491,-401.848"/>
<polygon fill="grey" stroke="grey" stroke-width="2" points="262.662,-404.61 269.109,-396.202 258.826,-398.754 262.662,-404.61"/>
</g>
<!-- 15&#45;&gt;19 -->
<g id="edge43" class="edge"><title>15&#45;&gt;19</title>
<path fill="none" stroke="grey" stroke-width="2" d="M237.333,-503.871C224.209,-479.35 199.954,-434.032 184.554,-405.259"/>
<polygon fill="grey" stroke="grey" stroke-width="2" points="187.505,-403.354 179.7,-396.189 181.333,-406.658 187.505,-403.354"/>
</g>
<!-- 15&#45;&gt;20 -->
<g id="edge46" class="edge"><title>15&#45;&gt;20</title>
<path fill="none" stroke="grey" stroke-width="2" d="M253.439,-503.928C262.307,-484.084 279.441,-451.564 303.5,-432 321.915,-417.026 345.021,-405.972 367.078,-397.954"/>
<polygon fill="grey" stroke="grey" stroke-width="2" points="368.48,-401.173 376.782,-394.592 366.188,-394.559 368.48,-401.173"/>
</g>
<!-- 16&#45;&gt;7 -->
<g id="edge15" class="edge"><title>16&#45;&gt;7</title>
<path fill="none" stroke="grey" stroke-width="2" d="M380.566,-439.267C417.023,-428.85 475.857,-412.041 522.138,-398.818"/>
<polygon fill="grey" stroke="grey" stroke-width="2" points="523.157,-402.167 531.811,-396.054 521.234,-395.436 523.157,-402.167"/>
</g>
<!-- 16&#45;&gt;17 -->
<g id="edge36" class="edge"><title>16&#45;&gt;17</title>
<path fill="none" stroke="grey" stroke-width="2" d="M336.612,-431.697C332.011,-423.644 326.44,-413.894 321.347,-404.982"/>
<polygon fill="grey" stroke="grey" stroke-width="2" points="324.274,-403.05 316.274,-396.104 318.196,-406.523 324.274,-403.05"/>
</g>
<!-- 16&#45;&gt;19 -->
<g id="edge42" class="edge"><title>16&#45;&gt;19</title>
<path fill="none" stroke="grey" stroke-width="2" d="M312.148,-435.337C286.802,-425.257 251.856,-411.357 223.016,-399.887"/>
<polygon fill="grey" stroke="grey" stroke-width="2" points="224.078,-396.543 213.493,-396.099 221.491,-403.047 224.078,-396.543"/>
</g>
<!-- 16&#45;&gt;20 -->
<g id="edge45" class="edge"><title>16&#45;&gt;20</title>
<path fill="none" stroke="grey" stroke-width="2" d="M370.23,-431.697C382.437,-422.796 397.485,-411.823 410.684,-402.199"/>
<polygon fill="grey" stroke="grey" stroke-width="2" points="413.025,-404.824 419.043,-396.104 408.9,-399.168 413.025,-404.824"/>
</g>
<!-- 17&#45;&gt;9 -->
<g id="edge19" class="edge"><title>17&#45;&gt;9</title>
<path fill="none" stroke="grey" stroke-width="2" d="M320.59,-359.697C327.423,-351.305 335.757,-341.07 343.256,-331.861"/>
<polygon fill="grey" stroke="grey" stroke-width="2" points="345.972,-334.069 349.572,-324.104 340.544,-329.649 345.972,-334.069"/>
</g>
<!-- 18&#45;&gt;6 -->
<g id="edge13" class="edge"><title>18&#45;&gt;6</title>
<path fill="none" stroke="grey" stroke-width="2" d="M244.354,-143.697C240.097,-135.644 234.944,-125.894 230.234,-116.982"/>
<polygon fill="grey" stroke="grey" stroke-width="2" points="233.308,-115.31 225.541,-108.104 227.12,-118.581 233.308,-115.31"/>
</g>
<!-- 18&#45;&gt;12 -->
<g id="edge23" class="edge"><title>18&#45;&gt;12</title>
<path fill="none" stroke="grey" stroke-width="2" d="M260.98,-143.704C264.973,-133.522 269.473,-120.272 271.5,-108 274.108,-92.2139 274.108,-87.7861 271.5,-72 270.059,-63.2752 267.368,-54.0563 264.498,-45.7969"/>
<polygon fill="grey" stroke="grey" stroke-width="2" points="267.734,-44.4583 260.98,-36.2958 261.17,-46.889 267.734,-44.4583"/>
</g>
<!-- 19&#45;&gt;14 -->
<g id="edge27" class="edge"><title>19&#45;&gt;14</title>
<path fill="none" stroke="grey" stroke-width="2" d="M193.78,-359.871C228.268,-334.497 293.022,-286.854 331.807,-258.318"/>
<polygon fill="grey" stroke="grey" stroke-width="2" points="334.157,-260.935 340.137,-252.189 330.008,-255.296 334.157,-260.935"/>
</g>
<!-- 19&#45;&gt;21 -->
<g id="edge48" class="edge"><title>19&#45;&gt;21</title>
<path fill="none" stroke="grey" stroke-width="2" d="M169.026,-359.663C168.241,-340.736 169.455,-310.173 182.5,-288 189.969,-275.305 201.784,-264.691 213.65,-256.379"/>
<polygon fill="grey" stroke="grey" stroke-width="2" points="215.802,-259.152 222.237,-250.735 211.958,-253.302 215.802,-259.152"/>
</g>
<!-- 20&#45;&gt;14 -->
<g id="edge26" class="edge"><title>20&#45;&gt;14</title>
<path fill="none" stroke="grey" stroke-width="2" d="M444.92,-359.728C446.701,-340.858 446.987,-310.345 434.5,-288 427.496,-275.466 416.16,-265.026 404.582,-256.82"/>
<polygon fill="grey" stroke="grey" stroke-width="2" points="406.436,-253.85 396.168,-251.241 402.568,-259.684 406.436,-253.85"/>
</g>
<!-- 20&#45;&gt;21 -->
<g id="edge47" class="edge"><title>20&#45;&gt;21</title>
<path fill="none" stroke="grey" stroke-width="2" d="M376.984,-362.037C327.286,-350.047 266.221,-333.681 258.5,-324 244.822,-306.85 244.758,-281.405 247.426,-262.109"/>
<polygon fill="grey" stroke="grey" stroke-width="2" points="250.9,-262.558 249.12,-252.114 243.998,-261.389 250.9,-262.558"/>
</g>
<!-- 21&#45;&gt;18 -->
<g id="edge39" class="edge"><title>21&#45;&gt;18</title>
<path fill="none" stroke="grey" stroke-width="2" d="M253.5,-215.697C253.5,-207.983 253.5,-198.712 253.5,-190.112"/>
<polygon fill="grey" stroke="grey" stroke-width="2" points="257,-190.104 253.5,-180.104 250,-190.104 257,-190.104"/>
</g>
<!-- 22&#45;&gt;13 -->
<g id="edge25" class="edge"><title>22&#45;&gt;13</title>
<path fill="none" stroke="grey" stroke-width="2" d="M334.473,-575.876C347.05,-566.893 362.632,-555.763 376.252,-546.034"/>
<polygon fill="grey" stroke="grey" stroke-width="2" points="378.331,-548.85 384.434,-540.19 374.263,-543.154 378.331,-548.85"/>
</g>
<!-- 22&#45;&gt;15 -->
<g id="edge31" class="edge"><title>22&#45;&gt;15</title>
<path fill="none" stroke="grey" stroke-width="2" d="M294.68,-575.697C286.93,-567.22 277.461,-556.864 268.976,-547.583"/>
<polygon fill="grey" stroke="grey" stroke-width="2" points="271.469,-545.123 262.138,-540.104 266.303,-549.846 271.469,-545.123"/>
</g>
<!-- 22&#45;&gt;16 -->
<g id="edge33" class="edge"><title>22&#45;&gt;16</title>
<path fill="none" stroke="grey" stroke-width="2" d="M314.842,-575.871C321.005,-551.564 332.349,-506.819 339.652,-478.013"/>
<polygon fill="grey" stroke="grey" stroke-width="2" points="343.077,-478.743 342.142,-468.189 336.292,-477.022 343.077,-478.743"/>
</g>
<!-- 22&#45;&gt;18 -->
<g id="edge40" class="edge"><title>22&#45;&gt;18</title>
<path fill="none" stroke="grey" stroke-width="2" d="M279.585,-578.767C258.351,-568.661 229.732,-554.384 205.5,-540 145.603,-504.446 76.5,-520.655 76.5,-451 76.5,-451 76.5,-451 76.5,-305 76.5,-240.097 149.803,-199.921 202.063,-179.525"/>
<polygon fill="grey" stroke="grey" stroke-width="2" points="203.432,-182.75 211.553,-175.946 200.962,-176.2 203.432,-182.75"/>
</g>
<!-- 23 -->
<g id="node24" class="node"><title>23</title>
<path fill="none" stroke="#5692d8" stroke-width="2" d="M300.5,-900C300.5,-900 196.5,-900 196.5,-900 190.5,-900 184.5,-894 184.5,-888 184.5,-888 184.5,-876 184.5,-876 184.5,-870 190.5,-864 196.5,-864 196.5,-864 300.5,-864 300.5,-864 306.5,-864 312.5,-870 312.5,-876 312.5,-876 312.5,-888 312.5,-888 312.5,-894 306.5,-900 300.5,-900"/>
<text text-anchor="middle" x="248.5" y="-879.5" font-family="sans" font-size="10.00">checkParameterValidity</text>
</g>
<!-- 23&#45;&gt;1 -->
<g id="edge4" class="edge"><title>23&#45;&gt;1</title>
<path fill="none" stroke="grey" stroke-width="2" d="M271.66,-863.871C305.968,-838.497 370.387,-790.854 408.971,-762.318"/>
<polygon fill="grey" stroke="grey" stroke-width="2" points="411.299,-764.95 417.258,-756.189 407.137,-759.322 411.299,-764.95"/>
</g>
<!-- 23&#45;&gt;2 -->
<g id="edge5" class="edge"><title>23&#45;&gt;2</title>
<path fill="none" stroke="grey" stroke-width="2" d="M235.646,-863.697C229.475,-855.389 221.963,-845.277 215.176,-836.141"/>
<polygon fill="grey" stroke="grey" stroke-width="2" points="217.979,-834.045 209.206,-828.104 212.36,-838.219 217.979,-834.045"/>
</g>
<!-- 23&#45;&gt;10 -->
<g id="edge20" class="edge"><title>23&#45;&gt;10</title>
<path fill="none" stroke="grey" stroke-width="2" d="M199.344,-863.966C170.154,-853.85 133.038,-840.988 102.691,-830.472"/>
<polygon fill="grey" stroke="grey" stroke-width="2" points="103.69,-827.114 93.095,-827.147 101.398,-833.728 103.69,-827.114"/>
</g>
<!-- 23&#45;&gt;11 -->
<g id="edge21" class="edge"><title>23&#45;&gt;11</title>
<path fill="none" stroke="grey" stroke-width="2" d="M256.811,-863.908C261.776,-853.569 268.139,-840.09 273.5,-828 282.686,-807.285 292.507,-783.581 299.721,-765.847"/>
<polygon fill="grey" stroke="grey" stroke-width="2" points="303.133,-766.746 303.642,-756.163 296.645,-764.118 303.133,-766.746"/>
</g>
</g>
</svg>
